<svg width="52" height="44" fill="none" xmlns="http://www.w3.org/2000/svg"><path d="M37.4 36.5v-22h-34v22c0 1 .8 1.7 1.7 1.7h30.6c1 0 1.7-.7 1.7-1.7z" fill="#289BC3"/><path d="M13.6 33.1h-3.4a5.1 5.1 0 1 0 0 10.2h3.4a5.1 5.1 0 1 0 0-10.2zm30.6 0h-3.4a5.1 5.1 0 1 0 0 10.2h3.4a5.1 5.1 0 1 0 0-10.2z" fill="#32283C"/><path d="M40.8 43.4a5.1 5.1 0 1 0 0-10.2 5.1 5.1 0 0 0 0 10.2z" fill="#555A6E"/><path d="M40.8 40a1.7 1.7 0 1 0 0-3.4 1.7 1.7 0 0 0 0 3.4z" fill="#E6E6EB"/><path d="M30.6 33.1h-3.4a5.1 5.1 0 0 0 0 10.2h3.4a5.1 5.1 0 1 0 0-10.2z" fill="#32283C"/><path d="M47.6 16.1H22.1c-1 0-1.7.8-1.7 1.7v1.7h27.2a1.7 1.7 0 1 0 0-3.4z" fill="#A5C3DC"/><path d="M30.6 16.1h-8.5c-1 0-1.7.8-1.7 1.7v1.7h10.2a1.7 1.7 0 1 0 0-3.4z" fill="#D7E6F0"/><path d="M20.4 19.6h27.2V28H20.4v-8.4z" fill="#463C4B"/><path d="M20.4 19.6h10.2V28H20.4v-8.4z" fill="#555A6E"/><path d="M49.3 38.3H22.1a1.7 1.7 0 0 1-1.7-1.7V28h27.2a3.4 3.4 0 0 1 3.4 3.4v5.1c0 1-.8 1.7-1.7 1.7z" fill="#A5C3DC"/><path d="M32.3 38.3H22.1a1.7 1.7 0 0 1-1.7-1.7V28h10.2a3.4 3.4 0 0 1 3.4 3.4v5.1c0 1-.8 1.7-1.7 1.7z" fill="#D7E6F0"/><path d="M38.1 31.4h8.8a2.4 2.4 0 1 1 0 4.9H38a2.4 2.4 0 1 1 0-4.9z" fill="#555A6E"/><path d="M38.1 35.1a1.3 1.3 0 1 0 0-2.5 1.3 1.3 0 0 0 0 2.5zm8.8 0a1.3 1.3 0 1 0 0-2.5 1.3 1.3 0 0 0 0 2.5z" fill="#00D2D2"/><path d="M16.1 0h-5a.8.8 0 0 0 0 1.7 6 6 0 0 1 5.9 6c0 .4.4.8.8.8H23c.4 0 .8-.4.8-.8A7.7 7.7 0 0 0 16.1 0z" fill="#A5C3DC"/><path d="M29.8 0h-5.2A7.7 7.7 0 0 0 17 7.7c0 .4.4.8.8.8H23c.4 0 .8-.4.8-.8a6 6 0 0 1 6-6 .8.8 0 1 0 0-1.7z" fill="#A5C3DC"/><path d="M33.1 0h-5a.8.8 0 0 0 0 1.7 2.5 2.5 0 0 1 0 5.1.8.8 0 0 0 0 1.7h5a4.3 4.3 0 0 0 0-8.5zM12.8 6.8a2.5 2.5 0 0 1 0-5.1.8.8 0 0 0 0-1.7h-5a4.3 4.3 0 0 0 0 8.5h5a.8.8 0 0 0 0-1.7z" fill="#A5C3DC"/><path d="M39.1 8.5H1.7c-1 0-1.7.8-1.7 1.7v2.5c0 1 .8 1.8 1.7 1.8h37.4c1 0 1.7-.8 1.7-1.8v-2.5c0-1-.8-1.7-1.7-1.7z" fill="#289BC3"/><path d="M18.7 38.3H5.1a1.7 1.7 0 0 1-1.7-1.7v-17h17v17c0 .9-.8 1.6-1.7 1.6zm1.7-29.8H1.7c-1 0-1.7.8-1.7 1.7v2.5c0 1 .8 1.8 1.7 1.8h18.7c1 0 1.7-.8 1.7-1.8v-2.5c0-1-.8-1.7-1.7-1.7z" fill="#00D2D2"/><path d="M11.9 12.8c0 .9.8 1.6 1.7 1.6H8.5a1.7 1.7 0 0 1-1.7-1.7v-2.5c0-1 .8-1.7 1.7-1.7h5.1c-1 0-1.7.8-1.7 1.7v2.5z" fill="#D7E6F0"/><path d="M28.9 12.8c0 .9-.8 1.6-1.7 1.6h5.1c1 0 1.7-.7 1.7-1.7v-2.5c0-1-.8-1.7-1.7-1.7h-5.1c1 0 1.7.8 1.7 1.7v2.5z" fill="#A5C3DC"/><path d="M28 8.5H17v-.8A7.7 7.7 0 0 1 24.6 0H28a4.3 4.3 0 0 1 0 8.5zm-9.2-1.7H28a2.5 2.5 0 0 0 0-5.1h-3.4a6 6 0 0 0-6 5.1z" fill="#D7E6F0"/><path d="M18.7 8.5h-11a4.3 4.3 0 0 1 0-8.5H11a7.7 7.7 0 0 1 7.6 7.7v.8zm-11-6.8a2.5 2.5 0 0 0 0 5.1h9.2A6 6 0 0 0 11 1.7H7.6z" fill="#D7E6F0"/><path d="M27.2 43.4a5.1 5.1 0 1 0 0-10.2 5.1 5.1 0 0 0 0 10.2z" fill="#555A6E"/><path d="M27.2 40a1.7 1.7 0 1 0 0-3.4 1.7 1.7 0 0 0 0 3.4z" fill="#E6E6EB"/><path d="M10.2 43.4a5.1 5.1 0 1 0 0-10.2 5.1 5.1 0 0 0 0 10.2z" fill="#555A6E"/><path d="M10.2 40a1.7 1.7 0 1 0 0-3.4 1.7 1.7 0 0 0 0 3.4z" fill="#E6E6EB"/></svg>