<svg width="44" height="44" fill="none" xmlns="http://www.w3.org/2000/svg"><path d="M35.6 30.4h-23a1 1 0 0 1-1-1V18.7c0-.5.4-1 1-1h23c.5 0 1 .5 1 1v10.7c0 .5-.5 1-1 1z" fill="url(#a)"/><path d="m11.6 29 1.4 1.4h22.6c.5 0 1-.4 1-1V18.7a1 1 0 0 0-1-1h-23a1 1 0 0 0-1 1V29z" fill="url(#b)"/><path d="M34.2 29h-23a1 1 0 0 1-1-1V17.3c0-.5.4-1 1-1h23c.5 0 1 .5 1 1V28c0 .5-.5 1-1 1z" fill="url(#c)"/><path d="m10.2 27.6 1.4 1.4h22.6c.5 0 1-.5 1-1V17.3a1 1 0 0 0-1-1h-23a1 1 0 0 0-1 1v10.3z" fill="url(#d)"/><path d="M32.8 27.6h-23a1 1 0 0 1-1-1V16c0-.5.4-1 1-1h23c.5 0 1 .5 1 1v10.7c0 .5-.5 1-1 1z" fill="url(#e)"/><path d="m8.8 26.3 1.4 1.3h22.6c.5 0 1-.5 1-1V16a1 1 0 0 0-1-1h-23a1 1 0 0 0-1 1v10.3z" fill="url(#f)"/><path d="M31.5 26.3h-23a1 1 0 0 1-1-1V14.6c0-.5.4-1 1-1h23c.5 0 .9.5.9 1v10.7c0 .5-.4 1-1 1z" fill="url(#g)"/><path d="M31 16.3a1.3 1.3 0 0 1-1.2-1.7H10a1.3 1.3 0 0 1-1.9 1.6v7.5a1.3 1.3 0 0 1 1.9 1.6h19.7a1.3 1.3 0 0 1 1.8-1.6v-7.5l-.6.1z" fill="url(#h)"/><path d="M20 23.2a3.2 3.2 0 1 0 0-6.5 3.2 3.2 0 0 0 0 6.5z" fill="url(#i)"/><path d="M15.5 15.8h-5v1.4h5v-1.4z" fill="url(#j)"/><path d="M29.4 22.7h-5V24h5v-1.4z" fill="url(#k)"/><path d="M42.7 10a2 2 0 0 0-2.3.8A21.6 21.6 0 0 0 22 .4c-4.6 0-9 1.5-12.7 4.2a21.5 21.5 0 0 0-7.8 10.6 2 2 0 0 0 3.7 1.2 17.6 17.6 0 0 1 6.4-8.7 17.6 17.6 0 0 1 10.4-3.4 17.7 17.7 0 0 1 15 8.1 2 2 0 0 0-1 3.8l4 1.4h.2l.1.1h1a2 2 0 0 0 .3-.2l.2-.1a2 2 0 0 0 .3-.2l.1-.2.1-.1a2 2 0 0 0 .1-.2v-.1l.1-.1 1.5-4a2 2 0 0 0-1.2-2.5z" fill="url(#l)"/><path d="M1.3 34a2 2 0 0 0 2.3-.8A21.6 21.6 0 0 0 22 43.6c4.6 0 9-1.5 12.7-4.2a21.5 21.5 0 0 0 7.8-10.6 2 2 0 1 0-3.7-1.2 17.6 17.6 0 0 1-6.4 8.7 17.6 17.6 0 0 1-10.4 3.4 17.7 17.7 0 0 1-15-8.1 2 2 0 0 0 1-3.8l-4-1.4a2 2 0 0 0-.2 0l-.1-.1h-1a2 2 0 0 0-.3.2 2 2 0 0 0-.2.1 2 2 0 0 0-.3.2l-.1.2-.1.1-.1.2v.2h-.1l-1.5 4A2 2 0 0 0 1.3 34z" fill="url(#m)"/><defs><linearGradient id="a" x1="11.6" y1="24.1" x2="36.5" y2="24.1" gradientUnits="userSpaceOnUse"><stop stop-color="#61DB99"/><stop offset="1" stop-color="#009E74"/></linearGradient><linearGradient id="b" x1="25.2" y1="27.9" x2="23.9" y2="23.1" gradientUnits="userSpaceOnUse"><stop stop-color="#009E74" stop-opacity="0"/><stop offset="1" stop-color="#009E74"/></linearGradient><linearGradient id="c" x1="10.2" y1="22.7" x2="35.1" y2="22.7" gradientUnits="userSpaceOnUse"><stop stop-color="#61DB99"/><stop offset="1" stop-color="#009E74"/></linearGradient><linearGradient id="d" x1="23.6" y1="27" x2="22.8" y2="22.9" gradientUnits="userSpaceOnUse"><stop stop-color="#009E74" stop-opacity="0"/><stop offset="1" stop-color="#009E74"/></linearGradient><linearGradient id="e" x1="8.8" y1="21.3" x2="33.7" y2="21.3" gradientUnits="userSpaceOnUse"><stop stop-color="#61DB99"/><stop offset="1" stop-color="#009E74"/></linearGradient><linearGradient id="f" x1="23.1" y1="28.4" x2="19.1" y2="12.5" gradientUnits="userSpaceOnUse"><stop stop-color="#009E74" stop-opacity="0"/><stop offset="1" stop-color="#009E74"/></linearGradient><linearGradient id="g" x1="7.5" y1="19.9" x2="32.4" y2="19.9" gradientUnits="userSpaceOnUse"><stop stop-color="#A7F3CE"/><stop offset="1" stop-color="#61DB99"/></linearGradient><linearGradient id="h" x1="13.4" y1="13.4" x2="29.3" y2="29.3" gradientUnits="userSpaceOnUse"><stop stop-color="#61DB99"/><stop offset="1" stop-color="#009E74"/></linearGradient><linearGradient id="i" x1="18" y1="18" x2="22.7" y2="22.7" gradientUnits="userSpaceOnUse"><stop stop-color="#A7F3CE"/><stop offset="1" stop-color="#61DB99"/></linearGradient><linearGradient id="j" x1="11.7" y1="15.2" x2="14.9" y2="18.4" gradientUnits="userSpaceOnUse"><stop stop-color="#A7F3CE"/><stop offset="1" stop-color="#61DB99"/></linearGradient><linearGradient id="k" x1="25.5" y1="22" x2="28.8" y2="25.3" gradientUnits="userSpaceOnUse"><stop stop-color="#A7F3CE"/><stop offset="1" stop-color="#61DB99"/></linearGradient><linearGradient id="l" x1="1.4" y1="9.1" x2="44" y2="9.1" gradientUnits="userSpaceOnUse"><stop stop-color="#FFB92D"/><stop offset="1" stop-color="#F59500"/></linearGradient><radialGradient id="m" cx="0" cy="0" r="1" gradientUnits="userSpaceOnUse" gradientTransform="rotate(180 11.1 11) scale(21.8589)"><stop stop-color="#BE3F45"/><stop offset=".3" stop-color="#C14046"/><stop offset=".5" stop-color="#CA4148"/><stop offset=".7" stop-color="#D9444B"/><stop offset=".9" stop-color="#EF4950"/><stop offset="1" stop-color="#FF4C54"/></radialGradient></defs></svg>