<svg width="11" height="17" fill="none" xmlns="http://www.w3.org/2000/svg"><path d="M6.4 4.1c.9-.3 1.3-1.2 1.1-2-.2-.8-1-1.4-2-1.4s-1.8.6-2 1.4c-.2.8.2 1.7 1.1 2h1.8zm-3.2.7a.3.3 0 0 1-.2 0A3.6 3.6 0 0 1 2.8 0a.3.3 0 0 1 .3-.1l.2.2a.3.3 0 0 1 0 .3 3 3 0 0 0 0 3.8c.1.1.2.2.1.3a.3.3 0 0 1-.2.2zm5-1.4H8A.2.2 0 0 1 8 3c.6-.9.4-2-.4-2.7a.2.2 0 0 1 0-.2.3.3 0 0 1 .2-.2l.3.1c1 .9 1.1 2.2.4 3.2a.3.3 0 0 1-.2.1z" fill="#F98AAB"/><path d="M11 7.9v4.4s0 1.5-1 2.4V15.9c0 .3-.3.6-.6.6H5a.6.6 0 0 1-.6-.6c0-.5-.1-1-.5-1.3a7.7 7.7 0 0 1-1.6-2.3 16.3 16.3 0 0 0-2.2-4c-.5-.5 0-1 .6-1s1.6 1 2.1 2l.6.7H4a.6.6 0 0 0 .4-.3l.1-1V2.2a.8.8 0 0 1 .8-.8c.5 0 .9.4.9.8v3.4a.8.8 0 0 1 .8-.9c.4 0 .8.4.8.9v.8c0-.2 0-.4.2-.6a.8.8 0 0 1 .3-.2.7.7 0 0 1 .3 0c.4 0 .8.4.8.8v1.4c0-.2 0-.4.2-.6A.8.8 0 0 1 10 7h.4c.4 0 .7.4.7.9z" fill="#F98AAB"/><path d="M5.5 1.4h-.3a.8.8 0 0 0-.5.8v6.4c0 .4 0 .7-.2 1a.6.6 0 0 1-.2.4.6.6 0 0 0 .8-.3c0-.4.2-.7.1-1.1V2.2c0-.3.3-.6.6-.8a.8.8 0 0 0-.3 0zM7 4.8a.8.8 0 0 0-.6.8V8A.3.3 0 0 0 7 8V5.6c0-.4.2-.7.6-.8a.8.8 0 0 0-.6 0zm1.7.8a.8.8 0 0 0-.6.8V8a.3.3 0 0 0 .6 0V6.5c0-.3.2-.7.5-.8a.8.8 0 0 0-.5 0zm2 1.3h-.4a.8.8 0 0 0-.5.9v.5a.3.3 0 1 0 .5 0v-.5c0-.4.3-.7.6-.8a.8.8 0 0 0-.3 0zM10 9.6c-.2 0-.4.1-.4.3v1.5c0 .2.2.3.4.3s.3-.1.3-.3V10c0-.2-.1-.3-.3-.3zm0 2.8-.1.3a1 1 0 0 1-.2.5.5.5 0 0 0 0 .3l.1.2h.2c.2-.3.3-.6.3-1 0-.2 0-.3-.2-.3zM6 15h-.3l-.2.4c0 .2.1.3.2.3H6s.2-.1.2-.3L6 15zm2.7 0H7.1l-.2.4c0 .2 0 .3.2.3h1.6c.1 0 .2-.1.2-.3 0-.2 0-.4-.2-.4z" fill="#F8EDF0"/></svg>