<svg width="14" height="14" fill="none" xmlns="http://www.w3.org/2000/svg"><path d="M11.5 12H3.7a1.2 1.2 0 0 1 0-2.5H5l-.8.8h-.5a.4.4 0 0 0 0 .8h7.8v.8z" fill="#F9C2D2"/><path d="M7.8 11.1h3.7v.8H7.8v-.8z" fill="#F98AAB"/><path opacity=".5" d="M3 4.5 2.6 3H0v-.8h3.3L4 5.3l-1-.8z" fill="#F98AAB"/><path d="m9.6 4.7-.1-.2H3l1.2 5.8h7.2L13 4.7c-.3 0-2 1.5-3.3 0zm2 1.4-.1.9h-2l.1-1.3a3 3 0 0 0 2 .4zM7 7l-.1-1.6h2L8.6 7H7zm1.6.8-.1 1.7H7.2l-.1-1.7h1.5zM6 5.4 6.2 7H4.3L4 5.4h2zM4.5 7.8h1.7l.2 1.7H4.9l-.4-1.7zm4.8 1.7.2-1.7h1.7l-.4 1.7H9.3z" fill="#F9C2D2"/><path d="m9.6 4.7-.1-.2H7.8v.9h1L8.7 7h-.8v.8h.7l-.1 1.7h-.7v.8h3.6L13 4.7c-.3 0-2 1.5-3.3 0zm1.2 4.8H9.3l.2-1.7h1.7l-.4 1.7zm.9-3.4-.3.9H9.5l.1-1.2a3 3 0 0 0 2 .3z" fill="#F98AAB"/><path d="M5.4 13.6a1.2 1.2 0 1 1 0-2.5 1.2 1.2 0 0 1 0 2.5z" fill="#665151"/><path d="M9.5 13.6a1.2 1.2 0 1 1 0-2.5 1.2 1.2 0 0 1 0 2.5z" fill="#4D3535"/><path d="M11.1 6.2a2.9 2.9 0 1 1 0-5.8 2.9 2.9 0 0 1 0 5.8z" fill="#F9C2D2"/><path d="M5.4 12.7a.4.4 0 1 0 0-.8.4.4 0 0 0 0 .8z" fill="#FFF7E6"/><path d="M9.5 12.7a.4.4 0 1 0 0-.8.4.4 0 0 0 0 .8z" fill="#FFEACC"/><path d="M14 3.3A2.9 2.9 0 0 0 11.1.5v5.7A2.9 2.9 0 0 0 14 3.3z" fill="#F98AAB"/><path d="M12.4 2.9h-.9v-.8h-.8v.8H10v.8h.8v.8h.8v-.8h.9V3z" fill="#fff"/><path d="M11.1 2v2.5h.4v-.8h.9V3h-.9v-.8h-.4z" fill="#fff"/></svg>