<svg width="16" height="13" fill="none" xmlns="http://www.w3.org/2000/svg"><path d="M2.2 4.6h2.4a.3.3 0 0 0 0-.7H2.2a.3.3 0 0 0 0 .7ZM2.2 6.7h2.4a.3.3 0 0 0 0-.6H2.2a.3.3 0 0 0 0 .6ZM5.2 12c-.1-.2-.3-.3-.4-.2-.2 0-.3.2-.2.4 0 .2.2.2.4.2l.2-.4Z" fill="#F98AAB"/><path d="m16 7.1-3.8-4L13.3 2a1 1 0 0 0 0-1.5 1 1 0 0 0-1.4 0l-1.6 1.6h-.6V.9c0-.2-.1-.3-.3-.3H7.8V.3a.3.3 0 0 0-.7 0v.3H6V.3a.3.3 0 0 0-.6 0v.3H4.2V.3a.3.3 0 0 0-.6 0v.3H2.5V.3a.3.3 0 0 0-.7 0v.3H.3C.1.6 0 .7 0 .9V12c0 .1.1.3.3.3h3.2a.3.3 0 0 0 0-.6H.6V1.2h1.2v.3a.3.3 0 0 0 .7 0v-.3h1.1v.3a.3.3 0 0 0 .6 0v-.3h1.2v.3a.3.3 0 0 0 .6 0v-.3h1.1v.3a.3.3 0 0 0 .7 0v-.3H9V2c-.6 0-1 .2-1.5.6L5.3 5v.5a2.1 2.1 0 0 0 1.2.4l-.3.3v.1l-1 1.5c-.2.2-.2.3-.2.5H2.2a.3.3 0 0 0 0 .6h3.5l.4-.1 1.5-1v-.1l.7-.7.8.7v4H6.3a.3.3 0 0 0 0 .7h3.1c.2 0 .3-.2.3-.3V8.4c.4.3 1 .5 1.4.5h1.3c.3 0 .5 0 .7.3l2.4 2.5c.1.2.5 0 .5-.2V7Zm-8-4c.4-.2.8-.4 1.2-.4h.5l-2 2-.5.4c-.4.2-.8.2-1.1 0l2-2ZM12.4 1c.2-.2.4-.2.6 0a.4.4 0 0 1 0 .6L9.6 4.8l-.1-.1-.6-.4L12.3 1ZM5.7 8.2c-.1 0 0 0 0 0l.7-1.3.5.5-1.2.8ZM7.4 7l-.6-.6.6-.6c0 .3.2.4.3.6l.2.1-.5.5Zm8 3.7-1.9-2c-.3-.3-.7-.5-1.1-.5H11c-.4 0-.8-.1-1-.4L8 5.9c-.2-.2-.1-.6 0-.8.3-.2.7-.2 1 0l1.4 1.5h.5V6l-1-.8 1.8-1.7 3.6 3.9v3.2Z" fill="#F98AAB"/></svg>