<svg width="54" height="54" fill="none" xmlns="http://www.w3.org/2000/svg"><path d="M43.7 30.4h-8.3a.8.8 0 1 1 0-1.7h8.3a.8.8 0 1 1 0 1.7z" fill="#E0E2E5"/><path d="M25.3 19.4 27 39.7v1.6h10.1v-1.6l1.7-20.3H25.3z" fill="#93573D"/><path d="M16.9 19.4v-.8h-3.4V21h-3.4v8.4H17v-.8h3.4v-9.3h-3.4z" fill="#FDD14B"/><path d="M13.5 32a.8.8 0 0 1-.8-.8V22a.8.8 0 1 1 1.6 0v9.3a.8.8 0 0 1-.8.9zm3.5 1.8a.8.8 0 0 1-.8-.9L16 20.3a.8.8 0 0 1 1.7 0l.1 12.6a.8.8 0 0 1-.8.8z" fill="#E4BC43"/><path d="M9.3 27.8 11 39.7v1.6h10V27.8H9.4z" fill="#E74444"/><path d="M49 30.4h-1.8a.8.8 0 1 1 0-1.7H49a.8.8 0 1 1 0 1.7z" fill="#E0E2E5"/><path d="m38.8 19.4-.3 3.4H25.6l-.3-3.4h13.5z" fill="#A4D4F4"/><path d="M23.7 14.3A.8.8 0 0 1 23 13l.8-1.2a.8.8 0 0 0-.2-1.1l-.8-.6a2.5 2.5 0 0 1-.6-3.5l.8-1.2a.8.8 0 0 1 1.4 1l-.8 1.2a.8.8 0 0 0 .2 1.1l.8.6a2.5 2.5 0 0 1 .6 3.5l-.8 1.2a.8.8 0 0 1-.7.3zm-6.8 0a.8.8 0 0 1-.7-1.3l.8-1.2a.8.8 0 0 0-.2-1.1L16 10a2.5 2.5 0 0 1-.6-3.5l.8-1.2a.8.8 0 1 1 1.4 1l-.8 1.2a.8.8 0 0 0 .2 1.1l.8.6a2.5 2.5 0 0 1 .6 3.5l-.8 1.2a.8.8 0 0 1-.7.3zm13.4 0a.8.8 0 0 1-.7-1.3l.8-1.2a.8.8 0 0 0-.2-1.1l-.8-.6a2.5 2.5 0 0 1-.6-3.5l.8-1.2a.8.8 0 1 1 1.4 1l-.8 1.2a.8.8 0 0 0 .2 1.1l.9.6a2.5 2.5 0 0 1 .5 3.5L31 14a.8.8 0 0 1-.7.3zm21.2 11h-9.3a.8.8 0 1 1 0-1.7h9.3a.8.8 0 0 1 0 1.7zm-6 10.1h-5a.8.8 0 1 1 0-1.7h5a.8.8 0 1 1 0 1.7z" fill="#E0E2E5"/><path d="M51.5 49h-49a.8.8 0 0 1 0-1.8h49a.8.8 0 0 1 0 1.7z" fill="#C2C5C6"/><path d="M2.5 39.7h42.2v1.6A1.7 1.7 0 0 1 43 43H4.2a1.7 1.7 0 0 1-1.7-1.7v-1.6z" fill="#FDD14B"/><path d="M36.3 48.1a5 5 0 1 0 0-10.1 5 5 0 0 0 0 10z" fill="#6A7073"/><path d="M36.3 44.7a1.7 1.7 0 1 0 0-3.4 1.7 1.7 0 0 0 0 3.4z" fill="#99A2A7"/><path d="M11 48.1A5 5 0 1 0 11 38a5 5 0 0 0 0 10z" fill="#6A7073"/><path d="M11 44.7a1.7 1.7 0 1 0 0-3.4 1.7 1.7 0 0 0 0 3.4z" fill="#99A2A7"/><path d="M16 36.3h15.2V38a1.7 1.7 0 0 1-1.7 1.7H17.7A1.7 1.7 0 0 1 16 38v-1.7z" fill="#EA8333"/><path d="M30.5 32.9c.9 0 1.6.8 1.6 1.7 0 1-.7 1.7-1.6 1.7H16.7c-.8 0-1.5-.8-1.5-1.7 0-1 .7-1.7 1.5-1.7h13.8z" fill="#794832"/><path d="M16.9 29.5h13.5V33H16.9v-3.4z" fill="#FDD14B"/><path d="M32.9 30.4a2.6 2.6 0 0 1-2.6 2.5 2.7 2.7 0 0 1-2.3-1.1 2.7 2.7 0 0 1-4.4 0 2.7 2.7 0 0 1-4.4 0 2.7 2.7 0 0 1-2.2 1.1 2.6 2.6 0 0 1-2.7-2.5.8.8 0 0 1 .9-.9H32a.8.8 0 0 1 .8.9z" fill="#3BA673"/><path d="M31.2 22.8V16a.8.8 0 0 1 .5-.7l4.3-1.7a.8.8 0 0 1 .6 1.5l-3.7 1.5v6.2h-1.7z" fill="#E74444"/><path d="M31.2 19.4H33v3.4h-1.7v-3.4z" fill="#CE3536"/></svg>