<svg width="35" height="21" fill="none" xmlns="http://www.w3.org/2000/svg"><path d="M34.6 10.8a10.2 10.2 0 1 1-20.3 0 10.2 10.2 0 0 1 20.3 0z" fill="#FFB600"/><path d="M24.5.7a10.2 10.2 0 1 1-10.2 10.2" fill="#F7981D"/><path d="M24.5.7a10.2 10.2 0 1 1 0 20.3" fill="#FF8500"/><path d="M10.8.7a10.2 10.2 0 1 0 8 16.6h-2.1l-.8-1h3.6c.2-.4.5-.7.6-1.1h-4.8a6.4 6.4 0 0 1-.4-1h5.6a10.5 10.5 0 0 0 .3-5.5h-6.2l.3-1h5.5c0-.4-.2-.8-.4-1.1h-4.7c.1-.4.4-.7.6-1h3.6a5.1 5.1 0 0 0-.8-1.2h-2a9 9 0 0 1 1-1A10 10 0 0 0 10.9.8V.7z" fill="#FF5050"/><path d="M.8 10.8a10.2 10.2 0 0 0 18 6.5h-2.1a11 11 0 0 1-.8-1h3.6c.2-.4.5-.7.6-1.1h-4.8a6.4 6.4 0 0 1-.4-1h5.6a10.5 10.5 0 0 0 .3-5.5h-6.2l.3-1h5.5c0-.4-.2-.8-.4-1.1h-4.7c.1-.4.4-.7.6-1h3.6a5.1 5.1 0 0 0-.8-1.2h-2a9 9 0 0 1 1-1A10 10 0 0 0 10.9.8" fill="#E52836"/><path d="M11 21c2.6 0 5-1 6.8-2.6l1-1.1h-2.1a11 11 0 0 1-.8-1h3.6c.2-.4.5-.7.6-1.1h-4.8l-.4-1h5.6a10.5 10.5 0 0 0 .3-5.5h-6.2l.3-1h5.5a6.4 6.4 0 0 0-.4-1.1h-4.7c.1-.4.3-.7.6-1h3.6a5.1 5.1 0 0 0-.8-1.2h-2a9 9 0 0 1 1-1A10 10 0 0 0 10.9.8" fill="#CB2026"/><path d="m14.5 13.4.2-.9h-.3c-.4 0-.4-.2-.4-.3l.4-1.8h.6l.1-1h-.5v-.7h-1l-.6 4c0 .6.4.9.8.9l.7-.2zm.4-1.7c0 1.5 1 1.9 1.9 1.9.8 0 1.1-.2 1.1-.2l.2-1s-.6.3-1.1.3c-1.2 0-1-.9-1-.9h2.2l.2-1c0-.6-.4-1.5-1.6-1.5-1-.1-1.9 1-1.9 2.4zm1.9-1.6c.6 0 .5.7.5.8H16s.1-.8.7-.8zm6.8 3.3.2-1.2s-.5.3-.9.3c-.7 0-1-.6-1-1.2 0-1.3.6-2 1.3-2 .6 0 1 .3 1 .3l.2-1.1s-.7-.3-1.3-.3c-1.2 0-2.4 1-2.4 3.1 0 1.4.6 2.3 1.9 2.3l1-.2zm-15-4.2a3.8 3.8 0 0 0-1.3.2l-.1 1s.5-.3 1.1-.3c.4 0 .7 0 .7.4v.2h-.5c-.9 0-2 .4-2 1.6 0 1 .7 1.2 1.1 1.2.7 0 1-.5 1.1-.5v.5h1l.4-3C10 9.2 9 9.2 8.6 9.2zm.2 2.4c0 .2 0 1-.7 1-.3 0-.4-.3-.4-.4 0-.3.1-.7 1-.7l.1.1zm2.3 2c.3 0 1.6 0 1.6-1.5 0-1.3-1.3-1-1.3-1.6 0-.3.2-.4.6-.4l.8.1.1-1h-1c-.8 0-1.6.2-1.6 1.3 0 1.3 1.3 1.1 1.3 1.6 0 .4-.3.4-.6.4l-1-.2-.1 1c0 .1.3.2 1.2.2zm21.4-5.3-.2 1.5s-.4-.6-1-.6c-1 0-1.8 1.2-1.8 2.6 0 .9.4 1.8 1.3 1.8.7 0 1-.4 1-.4v.3h1l.9-5.1h-1.2zm-.4 2.9c0 .6-.3 1.3-1 1.3-.3 0-.5-.3-.5-.9 0-.8.4-1.3.9-1.3.3 0 .6.2.6.9zM2.8 13.5l.6-3.9.1 3.9h.8l1.4-3.9-.6 3.9h1.1l.9-5.2H5.3l-1 3.2-.1-3.2H2.6l-.9 5.2h1zm16.6 0c.4-1.8.4-3.2 1.2-3 0-.7.2-1 .3-1.2h-.2c-.5 0-.8.6-.8.6v-.6h-1l-.7 4.2h1.2zm6.7-4.3a4 4 0 0 0-1.3.2l-.2 1s.5-.3 1.2-.3c.4 0 .7 0 .7.4v.2H26c-1 0-2 .4-2 1.6 0 1 .7 1.2 1 1.2.8 0 1.1-.5 1.2-.5v.5h1l.3-3c0-1.3-1-1.3-1.4-1.3zm.3 2.4c0 .2-.1 1-.8 1-.3 0-.4-.3-.4-.4 0-.3.1-.7 1-.7l.2.1zm2 1.9c.4-1.8.4-3.2 1.2-3 0-.7.2-1 .3-1.2h-.2c-.5 0-.8.6-.8.6v-.6h-1l-.6 4.2h1.2z" fill="#fff"/><path d="M12.9 12.7c0 .6.3.9.8.9l.8-.2.2-.9h-.3c-.4 0-.4-.2-.4-.3l.4-1.8h.6l.1-1h-.5v-.7m.8 3c0 1.5.5 1.9 1.4 1.9.8 0 1.1-.2 1.1-.2l.2-1s-.6.3-1.1.3c-1.2 0-1-.9-1-.9h2.2l.2-1c0-.6-.4-1.5-1.6-1.5-1-.1-1.4 1-1.4 2.4zm1.4-1.6c.6 0 .7.7.7.8H16s0-.8.7-.8zm6.8 3.3.2-1.2s-.5.3-.9.3c-.7 0-1-.6-1-1.2 0-1.3.6-2 1.3-2 .6 0 1 .3 1 .3l.2-1.1s-.7-.3-1.3-.3c-1.2 0-1.9 1-1.9 3.1 0 1.4.1 2.3 1.4 2.3l1-.2zm-16.4-3s.5-.3 1.1-.3c.4 0 .7.1.7.4v.3h-.5c-.9 0-2 .4-2 1.6 0 1 .7 1.2 1.1 1.2.7 0 1-.5 1.1-.5v.4h1l.4-3C10 9.4 9 9.4 8.6 9.4l-1.4 1zm2.2 1.2c0 .2-.7 1-1.3 1-.3 0-.4-.3-.4-.4 0-.3.1-.7 1-.7l.7.1zm.5 1.8 1.2.1c.3 0 1.7 0 1.7-1.4 0-1.3-1.3-1-1.3-1.6 0-.3.2-.4.6-.4l.7.1.2-1h-1c-.9 0-1.1.2-1.1 1.3 0 1.3.8 1.1.8 1.6 0 .4-.4.4-.7.4m21.3-2.7s-.4-.6-1-.6c-1 0-1.3 1.2-1.3 2.6 0 .9-.1 1.8.8 1.8.7 0 1-.4 1-.4v.3h1l.9-5.1-1.4 1.4zm0 1.4c0 .6-.5 1.3-1.1 1.3-.4 0-.6-.3-.6-.9 0-.8.4-1.3.9-1.3.3 0 .8.2.8.9zM2.8 13.5l.6-3.9.1 3.9h.8l1.4-3.9-.6 3.9h1.1l.9-5.2H5.7l-1.5 3.2V8.3h-.6l-1.9 5.2h1zm15.5 0h1.1c.4-1.8.4-3.2 1.2-3 0-.7.2-1 .3-1.2h-.2c-.5 0-.8.6-.8.6v-.6m4.7 1s.5-.2 1.2-.2c.4 0 .7.1.7.4v.3H26c-1 0-2 .4-2 1.6 0 1 .7 1.2 1 1.2.8 0 1.1-.5 1.2-.5v.4h1l.3-3c0-1.2-1-1.2-1.5-1.2l-1.4 1zm2.2 1.3c0 .2-.6 1-1.3 1-.3 0-.4-.3-.4-.4 0-.3.2-.7 1-.7l.7.1zm.5 1.9h1.1c.4-1.8.4-3.2 1.2-3 0-.7.2-1 .4-1.2h-.3c-.4 0-.8.6-.8.6v-.6" fill="#DCE5E5"/></svg>