<svg width="11" height="10" fill="none" xmlns="http://www.w3.org/2000/svg"><path d="M3.8 0H1.3C.9 0 .6.1.3.4.2.7 0 1 0 1.4V4c0 .4.1.7.4 1 .2.2.5.4.9.4h1.4c.2 0 .4 0 .5.2l.2.4v.3c0 .5-.2.9-.5 1.2-.3.4-.7.6-1.2.6h-.4l-.3.1-.2.3v1s0 .2.2.3l.3.1h.4A3 3 0 0 0 3 9.7a3.4 3.4 0 0 0 1.8-2c.2-.4.3-.8.3-1.3v-5c0-.4-.2-.7-.4-1C4.4.1 4 0 3.8 0ZM10.6.4c-.2-.3-.5-.4-.9-.4H7.2c-.4 0-.7.1-1 .4-.2.3-.3.6-.3 1V4c0 .4.1.7.4 1 .2.2.5.4.9.4h1.4c.2 0 .4 0 .5.2l.2.4v.3c0 .5-.2.9-.5 1.2-.3.4-.7.6-1.2.6h-.4l-.3.1-.2.3v1s0 .2.2.3l.3.1h.4a3 3 0 0 0 1.3-.3 3.4 3.4 0 0 0 1.8-2c.2-.4.3-.8.3-1.3v-5c0-.4-.2-.7-.4-1Z" fill="#F6762C"/></svg>