<svg width="11" height="10" fill="none" xmlns="http://www.w3.org/2000/svg"><path d="M7.2 0h2.5c.4 0 .7.1.9.4.2.3.4.6.4 1V4c0 .4-.2.7-.4 1-.2.2-.5.4-.9.4H8.2c-.1 0-.3 0-.4.2l-.2.4v.3c0 .5.2.9.5 1.2.3.4.7.6 1.2.6h.4l.3.1.1.3v1l-.1.3-.3.1h-.4A3 3 0 0 1 8 9.7a3.4 3.4 0 0 1-1.8-2c-.2-.4-.3-.8-.3-1.3v-5c0-.4.1-.7.4-1 .2-.3.5-.4.9-.4ZM.4.4C.6.1.9 0 1.3 0h2.5c.3 0 .6.1.9.4.2.3.4.6.4 1V4c0 .4-.2.7-.4 1-.3.2-.6.4-.9.4H2.3c-.2 0-.3 0-.4.2-.2 0-.2.2-.2.4v.3c0 .5.2.9.5 1.2.3.4.7.6 1.2.6h.4l.3.1.1.3v1l-.1.3-.3.1h-.4A3 3 0 0 1 2 9.7a3.4 3.4 0 0 1-1.8-2C0 7.4 0 7 0 6.5v-5C0 1 .1.7.4.4Z" fill="#F6762C"/></svg>