<svg width="44" height="16" fill="none" xmlns="http://www.w3.org/2000/svg"><path d="M15 .38l-2.39 14.8h3.8L18.8.38H15zm11.46 6.03c-1.33-.65-2.15-1.1-2.15-1.77.02-.6.7-1.23 2.2-1.23a6.61 6.61 0 0 1 2.83.55l.34.15.52-3.1a9.6 9.6 0 0 0-3.41-.6c-3.76 0-6.4 1.95-6.42 4.74-.03 2.06 1.9 3.2 3.33 3.88 1.48.7 1.98 1.16 1.98 1.79-.02.96-1.2 1.4-2.29 1.4a7.73 7.73 0 0 1-3.56-.76l-.5-.23-.54 3.22c.9.4 2.54.74 4.24.76 4 0 6.59-1.92 6.62-4.9.01-1.63-1-2.88-3.2-3.9zM39.94.43H37c-.9 0-1.6.26-1.99 1.2l-5.64 13.55h3.99l1.1-2.93h4.46l.57 2.94h3.52L39.94.43zm-4.38 8.85c.08.01 1.53-4.79 1.53-4.79l1.16 4.8h-2.69zM9.44.38L5.7 10.44l-.4-1.98C4.6 6.16 2.46 3.68.05 2.45l3.41 12.72h4.02L13.46.39H9.44z" fill="#2394BC"/></svg>